<?xml version="1.0" encoding="utf-8"?><svg xmlns="http://www.w3.org/2000/svg" xmlns:xlink="http://www.w3.org/1999/xlink" width="1920" height="933" preserveAspectRatio="xMidYMid" viewBox="0 0 1920 933" style="z-index:1;display:block;background-color:rgb(0, 124, 197);animation-play-state:paused" ><g transform="translate(960,466.5) scale(1,1) translate(-960,-466.5)" style="transform:matrix(1, 0, 0, 1, 0, 0);animation-play-state:paused" ><defs style="animation-play-state:paused" ><filter id="blur-rx632w3s0s-1" x="-1" y="-1" width="3" height="3" style="animation-play-state:paused" ><feGaussianBlur stdDeviation="3" style="animation-play-state:paused" ></feGaussianBlur></filter>
<filter id="blur-rx632w3s0s-2" x="-1" y="-1" width="3" height="3" style="animation-play-state:paused" ><feGaussianBlur stdDeviation="1.5" style="animation-play-state:paused" ></feGaussianBlur></filter>
<filter id="blur-rx632w3s0s-3" x="-1" y="-1" width="3" height="3" style="animation-play-state:paused" ><feGaussianBlur stdDeviation="1" style="animation-play-state:paused" ></feGaussianBlur></filter></defs>
<circle cx="1726.105102342454" cy="0" transform="matrix(1,0,0,1,0,61.37860107421875)" r="11.903682467031077" fill="#bbddff" opacity="0.63" style="transform:matrix(1, 0, 0, 1, 0, 61.3786);opacity:0.63;animation-play-state:paused" ></circle>
<circle cx="1613.1824920118202" cy="0" transform="matrix(1,0,0,1,0,678.4884643554688)" r="15.499903644313223" fill="#aabbcc" opacity="0.7200000000000001" style="transform:matrix(1, 0, 0, 1, 0, 678.488);opacity:0.72;animation-play-state:paused" ></circle>
<circle cx="947.7907781032443" cy="0" transform="matrix(1,0,0,1,0,687.2701416015625)" r="7.531167422304916" fill="#ddeeff" opacity="0.36000000000000004" style="transform:matrix(1, 0, 0, 1, 0, 687.27);opacity:0.36;animation-play-state:paused" ></circle>
<circle cx="1136.616797614702" cy="0" transform="matrix(1,0,0,1,0,920.0187377929688)" r="11.691408547265633" fill="#ddeeff" opacity="0.63" style="transform:matrix(1, 0, 0, 1, 0, 920.019);opacity:0.63;animation-play-state:paused" ></circle>
<circle cx="1094.2825361854905" cy="0" transform="matrix(1,0,0,1,0,497.2842712402344)" r="7.376179697320202" fill="#ddeeff" opacity="0.36000000000000004" style="transform:matrix(1, 0, 0, 1, 0, 497.284);opacity:0.36;animation-play-state:paused" ></circle>
<circle cx="925.5424384159045" cy="0" transform="matrix(1,0,0,1,0,351.964599609375)" r="13.644657542172961" fill="#bbddff" opacity="0.7200000000000001" style="transform:matrix(1, 0, 0, 1, 0, 351.965);opacity:0.72;animation-play-state:paused" ></circle>
<circle cx="229.54866581273407" cy="0" transform="matrix(1,0,0,1,0,491.86102294921875)" r="15.858961641992614" fill="#aabbcc" opacity="0.7200000000000001" style="transform:matrix(1, 0, 0, 1, 0, 491.861);opacity:0.72;animation-play-state:paused" ></circle>
<circle cx="667.2229801790553" cy="0" transform="matrix(1,0,0,1,0,12.3994140625)" r="8.089557742025717" fill="#aabbcc" opacity="0.63" style="transform:matrix(1, 0, 0, 1, 0, 12.3994);opacity:0.63;animation-play-state:paused" ></circle>
<circle cx="414.8928637592914" cy="0" transform="matrix(1,0,0,1,0,745.477294921875)" r="14.992984905527091" fill="#ddeeff" opacity="0.7200000000000001" style="transform:matrix(1, 0, 0, 1, 0, 745.477);opacity:0.72;animation-play-state:paused" ></circle>
<circle cx="1020.693085243407" cy="0" transform="matrix(1,0,0,1,0,2.573974609375)" r="10.803868151177037" fill="#aabbcc" opacity="0.63" style="transform:matrix(1, 0, 0, 1, 0, 2.57397);opacity:0.63;animation-play-state:paused" ></circle>
<circle cx="312.4328890520849" cy="0" transform="matrix(1,0,0,1,0,43.50640869140625)" r="13.728689167192627" fill="#bbddff" opacity="0.7200000000000001" style="transform:matrix(1, 0, 0, 1, 0, 43.5064);opacity:0.72;animation-play-state:paused" ></circle>
<circle cx="1865.643884892198" cy="0" transform="matrix(1,0,0,1,0,277.49908447265625)" r="8.38220958727152" fill="#bbddff" opacity="0.63" style="transform:matrix(1, 0, 0, 1, 0, 277.499);opacity:0.63;animation-play-state:paused" ></circle>
<circle cx="1813.459731718082" cy="0" transform="matrix(1,0,0,1,0,165.89404296875)" r="11.830383565241638" fill="#ddeeff" opacity="0.63" style="transform:matrix(1, 0, 0, 1, 0, 165.894);opacity:0.63;animation-play-state:paused" ></circle>
<circle cx="41.99838225381271" cy="0" transform="matrix(1,0,0,1,0,791.2547607421875)" r="13.05749034541921" fill="#ddeeff" opacity="0.7200000000000001" style="transform:matrix(1, 0, 0, 1, 0, 791.255);opacity:0.72;animation-play-state:paused" ></circle>
<circle cx="1278.7112792418745" cy="0" transform="matrix(1,0,0,1,0,680.1188354492188)" r="13.61586736792632" fill="#bbddff" opacity="0.7200000000000001" style="transform:matrix(1, 0, 0, 1, 0, 680.119);opacity:0.72;animation-play-state:paused" ></circle></g></svg>