<svg xmlns="http://www.w3.org/2000/svg" version="1.1" xmlns:xlink="http://www.w3.org/1999/xlink" xmlns:svgjs="http://svgjs.dev/svgjs" width="1440" height="560" preserveAspectRatio="none" viewBox="0 0 1440 560"><g mask="url(&quot;#SvgjsMask1036&quot;)" fill="none"><rect width="1440" height="560" x="0" y="0" fill="#0e2a47"></rect><path d="M0,555.163C105.806,555.735,124.762,389.103,208.472,324.388C281.201,268.162,399.2,281.81,451.436,206.164C504.927,128.701,504.454,21.909,480.141,-69.034C457.044,-155.428,387.599,-218.283,321.778,-278.822C262.155,-333.66,190.106,-365.037,118.056,-402.062C28.06,-448.309,-53.962,-540.732,-153.598,-523.107C-252.694,-505.577,-321.682,-407.234,-365.323,-316.554C-404.039,-236.108,-367.377,-143.011,-379.118,-54.509C-390.677,32.618,-470.115,118.073,-433.59,198.014C-397.064,277.957,-274.869,266.261,-207.028,322.142C-125.173,389.567,-106.047,554.59,0,555.163" fill="#091b2e"></path><path d="M1440 1132.0030000000002C1545.421 1130.946 1616.291 1028.098 1710.788 981.354 1821.058 926.808 1991.367 947.037 2041.2559999999999 834.5840000000001 2091.3 721.782 1956.5410000000002 609.977 1928.905 489.706 1904.439 383.23199999999997 1948.275 262.754 1888.8 171.113 1826.971 75.844 1711.877 35.31200000000001 1606.504-7.062000000000012 1491.408-53.346000000000004 1369.324-121.02300000000002 1250.436-85.59500000000003 1131.612-50.186000000000035 1068.644 74.745 995.6510000000001 174.97000000000003 928.361 267.364 868.476 362.75800000000004 842.79 474.134 815.417 592.822 779.174 729.078 844.089 832.143 908.797 934.88 1057.241 932.242 1165.701 986.818 1260.022 1034.28 1334.416 1133.0610000000001 1440 1132.0030000000002" fill="#133960"></path></g><defs><mask id="SvgjsMask1036"><rect width="1440" height="560" fill="#ffffff"></rect></mask></defs></svg>